<?xml version="1.0" standalone="no"?>
<!DOCTYPE svg PUBLIC "-//W3C//DTD SVG 20010904//EN"
 "http://www.w3.org/TR/2001/REC-SVG-20010904/DTD/svg10.dtd">
<svg version="1.0" xmlns="http://www.w3.org/2000/svg"
 width="216.000000pt" height="216.000000pt" viewBox="0 0 216.000000 216.000000"
 preserveAspectRatio="xMidYMid meet">
<metadata>
Created by potrace 1.14, written by Peter Selinger 2001-2017
</metadata>
<g transform="translate(0.000000,216.000000) scale(0.100000,-0.100000)"
fill="#000000" stroke="none">
<path d="M257 2038 c-80 -17 -139 -65 -179 -147 -22 -45 -22 -55 -22 -356 1
-291 2 -313 21 -355 27 -58 69 -102 124 -131 44 -23 89 -27 307 -29 l62 0 0
-190 0 -190 189 189 189 190 157 2 c141 3 163 5 208 26 60 28 102 71 130 133
19 42 21 64 21 355 0 307 0 311 -24 357 -31 62 -74 106 -130 132 -43 19 -63
20 -530 21 -267 1 -502 -2 -523 -7z"/>
<path d="M1718 1350 c-4 -175 -6 -189 -33 -257 -53 -132 -166 -244 -296 -293
-69 -26 -108 -32 -232 -34 l-98 -1 -109 -109 c-61 -59 -110 -112 -110 -116 0
-5 15 -12 33 -16 17 -4 35 -9 40 -10 4 -1 72 -2 150 -3 l144 -1 191 -192 192
-192 0 192 0 192 153 1 c83 1 154 1 158 1 20 -2 117 59 142 90 58 72 62 102
61 434 -1 296 -1 301 -25 348 -31 62 -96 120 -154 136 -26 7 -81 13 -125 14
l-78 1 -4 -185z"/>
</g>
</svg>
